# xmcd
#
# Track frame offsets: 
#        150
#        20032
#        37193
#        56017
#        74129
#        96322
#        117535
#        136593
#        153411
#        169758
#        186617
#
# Disc length: 2706 seconds
#
# Revision: 0
# Processed by: cddbd v1.5.2PL0 Copyright (c) Steve Scherf et al.
# Submitted via: ExactAudioCopyFreeDBPlugin 1.0
#
DISCID=a90a900b
DTITLE=Gary Barlow - Open Road 21st edition CD2
DYEAR=2018
DGENRE=Blues
TTITLE0=So Help Me Girl
TTITLE1=Hang On in There Baby
TTITLE2=Are You Ready Now
TTITLE3=Everything I Ever Wanted
TTITLE4=Lay Down for Love
TTITLE5=Forever Love
TTITLE6=Never Knew
TTITLE7=Open Road
TTITLE8=The Meaning of a Love Song
TTITLE9=Cuddly Toy (Lush Vocal Radio Edit)
TTITLE10=Superhero
EXTD=
EXTT0=
EXTT1=
EXTT2=
EXTT3=
EXTT4=
EXTT5=
EXTT6=
EXTT7=
EXTT8=
EXTT9=
EXTT10=
PLAYORDER=
